<svg width="45" height="45" viewBox="0 0 45 45" fill="none" xmlns="http://www.w3.org/2000/svg">
<path d="M35.2837 11.2691C32.9348 10.1937 30.4552 9.43085 27.9082 8.99991C27.5596 9.62298 27.2442 10.264 26.9634 10.9204C24.2503 10.5116 21.4912 10.5116 18.7781 10.9204C18.497 10.2641 18.1817 9.62306 17.8333 8.99991C15.2846 9.43449 12.8033 10.1992 10.4522 11.2747C5.78448 18.1806 4.51915 24.915 5.15181 31.5538C7.88532 33.5734 10.9449 35.1094 14.1976 36.0949C14.93 35.1099 15.578 34.0649 16.1349 32.971C15.0772 32.5759 14.0563 32.0885 13.0841 31.5144C13.3399 31.3289 13.5902 31.1376 13.832 30.9521C16.661 32.2825 19.7487 32.9723 22.8749 32.9723C26.0012 32.9723 29.0889 32.2825 31.9179 30.9521C32.1625 31.1517 32.4127 31.3429 32.6658 31.5144C31.6917 32.0895 30.6689 32.5778 29.6093 32.9738C30.1655 34.0672 30.8137 35.1113 31.5467 36.0949C34.8021 35.1134 37.864 33.5781 40.5981 31.5566C41.3404 23.8578 39.3299 17.1852 35.2837 11.2691ZM16.9363 27.471C15.1733 27.471 13.7167 25.871 13.7167 23.9027C13.7167 21.9344 15.1227 20.3204 16.9307 20.3204C18.7387 20.3204 20.184 21.9344 20.1531 23.9027C20.1221 25.871 18.7331 27.471 16.9363 27.471ZM28.8136 27.471C27.0477 27.471 25.5968 25.871 25.5968 23.9027C25.5968 21.9344 27.0027 20.3204 28.8136 20.3204C30.6244 20.3204 32.0585 21.9344 32.0275 23.9027C31.9966 25.871 30.6103 27.471 28.8136 27.471Z" fill="#C0C3CF"/>
</svg>
