<svg width="15" height="15" viewBox="0 0 15 15" fill="#E0E0E0" xmlns="http://www.w3.org/2000/svg">
<g clip-path="url(#clip0_60_5596)">
<path d="M9.375 1.875H3.75C3.23125 1.875 2.7875 2.1875 2.6 2.6375L0.7125 7.04375C0.65625 7.1875 0.625 7.3375 0.625 7.5V8.75C0.625 9.4375 1.1875 10 1.875 10H5.81875L5.225 12.8562L5.20625 13.0562C5.20625 13.3125 5.3125 13.55 5.48125 13.7188L6.14375 14.375L10.2625 10.2563C10.4875 10.0312 10.625 9.71875 10.625 9.375V3.125C10.625 2.4375 10.0625 1.875 9.375 1.875ZM11.875 1.875V9.375H14.375V1.875H11.875Z" fill="inherit"/>
</g>
<defs>
<clipPath id="clip0_60_5596">
<rect width="15" height="15" fill="white"/>
</clipPath>
</defs>
</svg>
