<svg width="18" height="18" viewBox="0 0 18 18" fill="none" xmlns="http://www.w3.org/2000/svg">
<g>
<path d="M12.1368 1.49854H5.85458C3.1258 1.49854 1.49902 3.12531 1.49902 5.85409V12.1288C1.49902 14.8651 3.1258 16.4918 5.85458 16.4918H12.1293C14.8581 16.4918 16.4848 14.8651 16.4848 12.1363V5.85409C16.4923 3.12531 14.8656 1.49854 12.1368 1.49854ZM8.99568 11.9039C7.3914 11.9039 6.08698 10.5995 6.08698 8.99519C6.08698 7.39091 7.3914 6.08649 8.99568 6.08649C10.6 6.08649 11.9044 7.39091 11.9044 8.99519C11.9044 10.5995 10.6 11.9039 8.99568 11.9039ZM13.4337 5.1569C13.3962 5.24686 13.3437 5.32933 13.2763 5.40429C13.2013 5.47176 13.1188 5.52424 13.0289 5.56172C12.9389 5.59921 12.8415 5.6217 12.744 5.6217C12.5416 5.6217 12.3542 5.54673 12.2117 5.40429C12.1443 5.32933 12.0918 5.24686 12.0543 5.1569C12.0168 5.06694 11.9943 4.96949 11.9943 4.87203C11.9943 4.77457 12.0168 4.67712 12.0543 4.58716C12.0918 4.4897 12.1443 4.41473 12.2117 4.33977C12.3842 4.16734 12.6466 4.08488 12.8864 4.13736C12.9389 4.14485 12.9839 4.15985 13.0289 4.18234C13.0739 4.19733 13.1188 4.21982 13.1638 4.24981C13.2013 4.2723 13.2388 4.30978 13.2763 4.33977C13.3437 4.41473 13.3962 4.4897 13.4337 4.58716C13.4712 4.67712 13.4937 4.77457 13.4937 4.87203C13.4937 4.96949 13.4712 5.06694 13.4337 5.1569Z" fill="#9095A5"/>
</g>
</svg>
