<svg width="28" height="28" viewBox="0 0 27 27" fill="none"
  xmlns="http://www.w3.org/2000/svg">
  <linearGradient id="instagram-solid-gradient" gradientTransform="rotate(90)">
    <stop class="stop-color-1" stop-color="currentColor" offset="0%"/>
    <stop class="stop-color-2" stop-color="currentColor" offset="100%"/>
  </linearGradient>
  <g fill="url(#instagram-solid-gradient)">
    <path d="M13.6494 2.49569C17.2388 2.49569 17.6835 2.49569 19.1129 2.55922C20.4153 2.62275 21.1459 2.8451 21.6224 3.03569C22.2577 3.28981 22.7024 3.57569 23.1788 4.05216C23.6553 4.52863 23.9412 4.97333 24.1953 5.60863C24.3859 6.0851 24.6082 6.78392 24.6718 8.11804C24.7353 9.54745 24.7353 9.96039 24.7353 13.5816C24.7353 17.2027 24.7353 17.6157 24.6718 19.0451C24.6082 20.3475 24.3859 21.078 24.1953 21.5545C23.9412 22.1898 23.6553 22.6345 23.1788 23.111C22.7024 23.5875 22.2577 23.8733 21.6224 24.1275C21.1459 24.318 20.4471 24.5404 19.1129 24.6039C17.6835 24.6675 17.2706 24.6675 13.6494 24.6675C10.06 24.6675 9.6153 24.6675 8.18588 24.6039C6.88353 24.5404 6.15294 24.318 5.67647 24.1275C5.04118 23.8733 4.59647 23.5875 4.12 23.111C3.64353 22.6345 3.35765 22.1898 3.10353 21.5545C2.91294 21.078 2.69059 20.3792 2.62706 19.0451C2.56353 17.6157 2.56353 17.2027 2.56353 13.5816C2.56353 9.96039 2.56353 9.54745 2.62706 8.11804C2.69059 6.81569 2.91294 6.0851 3.10353 5.60863C3.35765 4.97333 3.64353 4.52863 4.12 4.05216C4.59647 3.57569 5.04118 3.28981 5.67647 3.03569C6.15294 2.8451 6.85177 2.62275 8.18588 2.55922C9.6153 2.49569 10.06 2.49569 13.6494 2.49569ZM13.6494 0.0498047C9.99647 0.0498047 9.52 0.0498044 8.09059 0.145099C6.66118 0.208628 5.67647 0.430981 4.81883 0.780393C3.92941 1.1298 3.16706 1.57451 2.43647 2.33686C1.67412 3.09922 1.22941 3.82981 0.880002 4.71922C0.53059 5.57686 0.308237 6.56157 0.244708 7.99098C0.149414 9.42039 0.149414 9.89686 0.149414 13.5498C0.149414 17.2027 0.149414 17.6792 0.244708 19.1086C0.308237 20.538 0.53059 21.5227 0.880002 22.3804C1.22941 23.2698 1.67412 24.0322 2.43647 24.7627C3.19883 25.5251 3.92941 25.9698 4.81883 26.3192C5.67647 26.6686 6.66118 26.891 8.09059 26.9545C9.52 27.018 9.99647 27.0498 13.6494 27.0498C17.3024 27.0498 17.7788 27.0498 19.2082 26.9545C20.6376 26.891 21.6224 26.6686 22.48 26.3192C23.3694 25.9698 24.1318 25.5251 24.8624 24.7627C25.6247 24.0004 26.0694 23.2698 26.4188 22.3804C26.7682 21.5227 26.9906 20.538 27.0541 19.1086C27.1176 17.6792 27.1494 17.2027 27.1494 13.5498C27.1494 9.89686 27.1494 9.42039 27.0541 7.99098C26.9906 6.56157 26.7682 5.57686 26.4188 4.71922C26.0694 3.82981 25.6247 3.06745 24.8624 2.33686C24.1 1.57451 23.3694 1.1298 22.48 0.780393C21.6224 0.430981 20.6376 0.208628 19.2082 0.145099C17.7788 0.0498044 17.3024 0.0498047 13.6494 0.0498047Z"/>
    <path d="M13.6493 6.625C9.80579 6.625 6.72461 9.73794 6.72461 13.5497C6.72461 17.3615 9.83755 20.4744 13.6493 20.4744C17.4928 20.4744 20.574 17.3615 20.574 13.5497C20.574 9.73794 17.4928 6.625 13.6493 6.625ZM13.6493 18.0603C11.1717 18.0603 9.13873 16.0591 9.13873 13.5497C9.13873 11.0403 11.1399 9.03912 13.6493 9.03912C16.1587 9.03912 18.1599 11.0403 18.1599 13.5497C18.1599 16.0591 16.127 18.0603 13.6493 18.0603Z"/>
    <path d="M20.8602 7.95973C21.7549 7.95973 22.4802 7.23443 22.4802 6.33973C22.4802 5.44502 21.7549 4.71973 20.8602 4.71973C19.9655 4.71973 19.2402 5.44502 19.2402 6.33973C19.2402 7.23443 19.9655 7.95973 20.8602 7.95973Z"/>
  </g>
</svg>
