<svg width="22" height="22" viewBox="0 0 22 22" fill="none" xmlns="http://www.w3.org/2000/svg">
<path d="M10.9884 0.240234C5.04839 0.240234 0.238281 5.0611 0.238281 11.0011C0.238281 16.9411 5.04839 21.762 10.9884 21.762C16.9392 21.762 21.76 16.9411 21.76 11.0011C21.76 5.0611 16.9392 0.240234 10.9884 0.240234ZM18.4457 6.69676H15.2712C14.9269 5.35165 14.4319 4.06034 13.7862 2.86589C15.7662 3.54382 17.4126 4.92121 18.4457 6.69676ZM10.9992 2.43545C11.8923 3.72676 12.5918 5.15795 13.0545 6.69676H8.94382C9.40654 5.15795 10.106 3.72676 10.9992 2.43545ZM2.67024 13.1533C2.49806 12.4646 2.39046 11.7436 2.39046 11.0011C2.39046 10.2586 2.49806 9.53763 2.67024 8.84893H6.30741C6.22132 9.55915 6.15676 10.2694 6.15676 11.0011C6.15676 11.7328 6.22132 12.4431 6.30741 13.1533H2.67024ZM3.55263 15.3055H6.72709C7.07143 16.6506 7.56643 17.9419 8.21209 19.1363C6.23209 18.4584 4.58567 17.0918 3.55263 15.3055ZM6.72709 6.69676H3.55263C4.58567 4.91045 6.23209 3.54382 8.21209 2.86589C7.56643 4.06034 7.07143 5.35165 6.72709 6.69676ZM10.9992 19.5668C10.106 18.2755 9.40654 16.8443 8.94382 15.3055H13.0545C12.5918 16.8443 11.8923 18.2755 10.9992 19.5668ZM13.5172 13.1533H8.48111C8.38426 12.4431 8.30893 11.7328 8.30893 11.0011C8.30893 10.2694 8.38426 9.54839 8.48111 8.84893H13.5172C13.614 9.54839 13.6894 10.2694 13.6894 11.0011C13.6894 11.7328 13.614 12.4431 13.5172 13.1533ZM13.7862 19.1363C14.4319 17.9419 14.9269 16.6506 15.2712 15.3055H18.4457C17.4126 17.081 15.7662 18.4584 13.7862 19.1363ZM15.6909 13.1533C15.777 12.4431 15.8415 11.7328 15.8415 11.0011C15.8415 10.2694 15.777 9.55915 15.6909 8.84893H19.3281C19.5002 9.53763 19.6078 10.2586 19.6078 11.0011C19.6078 11.7436 19.5002 12.4646 19.3281 13.1533H15.6909Z" fill="#9095A5"/>
</svg>
