<svg width="24" height="24" viewBox="0 0 24 24" fill="none" xmlns="http://www.w3.org/2000/svg">
<mask id="mask0_13744_10212" style="mask-type:alpha" maskUnits="userSpaceOnUse" x="0" y="0" width="24" height="24">
<rect width="24" height="24" fill="#D9D9D9"/>
</mask>
<g mask="url(#mask0_13744_10212)">
<path d="M12 22.7692C10.6333 22.7692 9.34167 22.4998 8.125 21.961C6.90833 21.4228 5.846 20.6878 4.938 19.7558C4.02933 18.8246 3.31267 17.735 2.788 16.4871C2.26267 15.2393 2 13.9145 2 12.5128C2 11.094 2.26267 9.76507 2.788 8.52609C3.31267 7.28643 4.02933 6.20096 4.938 5.26968C5.846 4.33772 6.90833 3.60233 8.125 3.06353C9.34167 2.52541 10.6333 2.25635 12 2.25635C13.3833 2.25635 14.679 2.52541 15.887 3.06353C17.0957 3.60233 18.154 4.33772 19.062 5.26968C19.9707 6.20096 20.6873 7.28643 21.212 8.52609C21.7373 9.76507 22 11.094 22 12.5128C22 13.9145 21.7373 15.2393 21.212 16.4871C20.6873 17.735 19.9707 18.8246 19.062 19.7558C18.154 20.6878 17.0957 21.4228 15.887 21.961C14.679 22.4998 13.3833 22.7692 12 22.7692ZM12 20.6666C12.4333 20.0512 12.8083 19.4102 13.125 18.7435C13.4417 18.0769 13.7 17.3675 13.9 16.6153H10.1C10.3 17.3675 10.5583 18.0769 10.875 18.7435C11.1917 19.4102 11.5667 20.0512 12 20.6666ZM9.4 20.2563C9.1 19.6922 8.83767 19.1066 8.613 18.4994C8.38767 17.8929 8.2 17.2649 8.05 16.6153H5.1C5.58333 17.47 6.18733 18.2136 6.912 18.8461C7.63733 19.4786 8.46667 19.9487 9.4 20.2563ZM14.6 20.2563C15.5333 19.9487 16.3623 19.4786 17.087 18.8461C17.8123 18.2136 18.4167 17.47 18.9 16.6153H15.95C15.8 17.2649 15.6127 17.8929 15.388 18.4994C15.1627 19.1066 14.9 19.6922 14.6 20.2563ZM4.25 14.564H7.65C7.6 14.2222 7.56233 13.8844 7.537 13.5507C7.51233 13.2177 7.5 12.8717 7.5 12.5128C7.5 12.1538 7.51233 11.8078 7.537 11.4748C7.56233 11.1411 7.6 10.8034 7.65 10.4615H4.25C4.16667 10.8034 4.104 11.1411 4.062 11.4748C4.02067 11.8078 4 12.1538 4 12.5128C4 12.8717 4.02067 13.2177 4.062 13.5507C4.104 13.8844 4.16667 14.2222 4.25 14.564ZM9.65 14.564H14.35C14.4 14.2222 14.4377 13.8844 14.463 13.5507C14.4877 13.2177 14.5 12.8717 14.5 12.5128C14.5 12.1538 14.4877 11.8078 14.463 11.4748C14.4377 11.1411 14.4 10.8034 14.35 10.4615H9.65C9.6 10.8034 9.56267 11.1411 9.538 11.4748C9.51267 11.8078 9.5 12.1538 9.5 12.5128C9.5 12.8717 9.51267 13.2177 9.538 13.5507C9.56267 13.8844 9.6 14.2222 9.65 14.564ZM16.35 14.564H19.75C19.8333 14.2222 19.896 13.8844 19.938 13.5507C19.9793 13.2177 20 12.8717 20 12.5128C20 12.1538 19.9793 11.8078 19.938 11.4748C19.896 11.1411 19.8333 10.8034 19.75 10.4615H16.35C16.4 10.8034 16.4373 11.1411 16.462 11.4748C16.4873 11.8078 16.5 12.1538 16.5 12.5128C16.5 12.8717 16.4873 13.2177 16.462 13.5507C16.4373 13.8844 16.4 14.2222 16.35 14.564ZM15.95 8.41019H18.9C18.4167 7.55549 17.8123 6.8119 17.087 6.17942C16.3623 5.54695 15.5333 5.07686 14.6 4.76917C14.9 5.33327 15.1627 5.91857 15.388 6.52507C15.6127 7.13225 15.8 7.76062 15.95 8.41019ZM10.1 8.41019H13.9C13.7 7.65806 13.4417 6.94866 13.125 6.28199C12.8083 5.61532 12.4333 4.9743 12 4.35891C11.5667 4.9743 11.1917 5.61532 10.875 6.28199C10.5583 6.94866 10.3 7.65806 10.1 8.41019ZM5.1 8.41019H8.05C8.2 7.76062 8.38767 7.13225 8.613 6.52507C8.83767 5.91857 9.1 5.33327 9.4 4.76917C8.46667 5.07686 7.63733 5.54695 6.912 6.17942C6.18733 6.8119 5.58333 7.55549 5.1 8.41019Z" fill="#DFE3F0"/>
</g>
</svg>
