<svg width="45" height="45" viewBox="0 0 45 45" fill="none" xmlns="http://www.w3.org/2000/svg">
<path d="M25.2576 22C25.2576 29.1797 19.6035 35 12.6288 35C5.6541 35 0 29.1797 0 22C0 14.8203 5.6541 9 12.6288 9C19.6034 9 25.2576 14.8203 25.2576 22Z" fill="#C0C3CF"/>
<path d="M39.111 22.0009C39.111 28.7593 36.2839 34.2381 32.7966 34.2381C29.3093 34.2381 26.4822 28.7593 26.4822 22.0009C26.4822 15.2424 29.3093 9.76367 32.7966 9.76367C36.284 9.76367 39.111 15.2424 39.111 22.0009Z" fill="#C0C3CF"/>
<path d="M44.7778 21.9997C44.7778 28.055 43.7834 32.9637 42.5569 32.9637C41.3303 32.9637 40.3362 28.055 40.3362 21.9997C40.3362 15.9444 41.3303 11.0356 42.5569 11.0356C43.7834 11.0356 44.7778 15.9444 44.7778 21.9997Z" fill="#C0C3CF"/>
</svg>
