<svg width="25" height="25" viewBox="0 0 25 25" fill="none" xmlns="http://www.w3.org/2000/svg">
<path fill-rule="evenodd" clip-rule="evenodd" d="M7.6875 23.0104L10.8321 23.9446V22.723L11.0888 22.4355H12.8856V23.8727V24.8787H10.9604L8.58593 23.729L7.6875 23.0104Z" fill="#CDBDB2"/>
<path fill-rule="evenodd" clip-rule="evenodd" d="M17.957 23.0104L14.8767 23.9446V22.723L14.62 22.4355H12.8231V23.8727V24.8787H14.7483L17.1227 23.729L17.957 23.0104Z" fill="#CDBDB2"/>
<path fill-rule="evenodd" clip-rule="evenodd" d="M11.0907 20.3515L10.834 22.7227L11.1548 22.4353H14.4918L14.8769 22.7227L14.6202 20.3515L14.1068 19.9922L11.5398 20.0641L11.0907 20.3515Z" fill="#393939"/>
<path fill-rule="evenodd" clip-rule="evenodd" d="M9.35742 4.32715L10.8976 8.3511L11.6036 20.0637H14.1063L14.8764 8.3511L16.2882 4.32715H9.35742Z" fill="#F89C35"/>
<path fill-rule="evenodd" clip-rule="evenodd" d="M2.61913 13.1664L0.822266 18.9867L5.31442 18.6993H8.20218V16.1844L8.07383 11.0107L7.43209 11.5856L2.61913 13.1664Z" fill="#F89D35"/>
<path fill-rule="evenodd" clip-rule="evenodd" d="M6.02148 13.8125L11.2837 13.9562L10.7062 16.9742L8.20339 16.2556L6.02148 13.8125Z" fill="#D87C30"/>
<path fill-rule="evenodd" clip-rule="evenodd" d="M6.02148 13.8848L8.20339 16.1842V18.4836L6.02148 13.8848Z" fill="#EA8D3A"/>
<path fill-rule="evenodd" clip-rule="evenodd" d="M8.20312 16.2559L10.7701 16.9744L11.6044 20.0643L11.0268 20.4235L8.20312 18.5553V16.2559Z" fill="#F89D35"/>
<path fill-rule="evenodd" clip-rule="evenodd" d="M8.20089 18.5557L7.6875 23.0108L11.0888 20.3521L8.20089 18.5557Z" fill="#EB8F35"/>
<path fill-rule="evenodd" clip-rule="evenodd" d="M11.2824 13.9561L11.6033 20.0639L10.6406 16.9381L11.2824 13.9561Z" fill="#EA8E3A"/>
<path fill-rule="evenodd" clip-rule="evenodd" d="M5.25 18.6276L8.20199 18.5557L7.6886 23.0108L5.25 18.6276Z" fill="#D87C30"/>
<path fill-rule="evenodd" clip-rule="evenodd" d="M2.23409 24.9503L7.68879 23.0101L5.25019 18.627L0.822266 18.9862L2.23409 24.9503Z" fill="#EB8F35"/>
<path fill-rule="evenodd" clip-rule="evenodd" d="M10.8987 8.35156L8.13927 10.9384L6.02148 13.8126L11.2837 14.0283L10.8987 8.35156Z" fill="#E8821E"/>
<path fill-rule="evenodd" clip-rule="evenodd" d="M7.6875 23.0102L11.0888 20.3516L10.8321 22.651V23.9444L8.52181 23.4413L7.6875 23.0102Z" fill="#DFCEC3"/>
<path fill-rule="evenodd" clip-rule="evenodd" d="M17.957 23.0102L14.62 20.3516L14.8767 22.651V23.9444L17.1869 23.4413L17.957 23.0102Z" fill="#DFCEC3"/>
<path fill-rule="evenodd" clip-rule="evenodd" d="M9.87216 15.25L10.5781 16.9028L8.0753 16.1842L9.87216 15.25Z" fill="#393939"/>
<path fill-rule="evenodd" clip-rule="evenodd" d="M2.16992 0.950195L10.8975 8.35133L9.4216 4.32738L2.16992 0.950195Z" fill="#E88F35"/>
<path fill-rule="evenodd" clip-rule="evenodd" d="M2.17075 0.950195L1.01562 4.90229L1.65736 9.21367L1.20815 9.5011L1.84988 10.1478L1.33649 10.6508L2.0424 11.3694L1.59319 11.8005L2.61997 13.2376L7.43299 11.5849C9.78602 9.47715 10.9411 8.3993 10.8984 8.3514C10.8556 8.30349 7.94638 5.83643 2.17075 0.950195Z" fill="#8E5A30"/>
<path fill-rule="evenodd" clip-rule="evenodd" d="M23.0254 13.1655L24.8223 18.9858L20.3301 18.6983H17.4424V16.1834L17.5707 11.0098L18.2124 11.5846L23.0254 13.1655Z" fill="#F89D35"/>
<path fill-rule="evenodd" clip-rule="evenodd" d="M19.623 13.8125L14.3608 13.9562L14.9383 16.9742L17.4411 16.2556L19.623 13.8125Z" fill="#D87C30"/>
<path fill-rule="evenodd" clip-rule="evenodd" d="M19.623 13.8848L17.4411 16.1842V18.4836L19.623 13.8848Z" fill="#EA8D3A"/>
<path fill-rule="evenodd" clip-rule="evenodd" d="M17.4414 16.2559L14.8745 16.9744L14.0401 20.0643L14.6178 20.4235L17.4414 18.5553V16.2559Z" fill="#F89D35"/>
<path fill-rule="evenodd" clip-rule="evenodd" d="M17.4436 18.5547L17.957 23.0098L14.62 20.423L17.4436 18.5547Z" fill="#EB8F35"/>
<path fill-rule="evenodd" clip-rule="evenodd" d="M14.3622 13.9561L14.0412 20.0639L15.0039 16.9381L14.3622 13.9561Z" fill="#EA8E3A"/>
<path fill-rule="evenodd" clip-rule="evenodd" d="M20.3945 18.6266L17.4425 18.5547L17.9559 23.0098L20.3945 18.6266Z" fill="#D87C30"/>
<path fill-rule="evenodd" clip-rule="evenodd" d="M23.4104 24.9493L17.9557 23.0091L20.3943 18.626L24.8223 18.9852L23.4104 24.9493Z" fill="#EB8F35"/>
<path fill-rule="evenodd" clip-rule="evenodd" d="M14.7459 8.35156L17.5053 10.9384L19.623 13.8126L14.3608 14.0283L14.7459 8.35156Z" fill="#E8821E"/>
<path fill-rule="evenodd" clip-rule="evenodd" d="M15.7724 15.249L15.0664 16.9018L17.5692 16.1832L15.7724 15.249Z" fill="#393939"/>
<path fill-rule="evenodd" clip-rule="evenodd" d="M23.4746 0.950195L14.747 8.35133L16.2229 4.32738L23.4746 0.950195Z" fill="#E88F35"/>
<path fill-rule="evenodd" clip-rule="evenodd" d="M23.4738 0.950195L24.6289 4.90229L23.9872 9.21367L24.4364 9.5011L23.7946 10.1478L24.308 10.6508L23.6021 11.3694L24.0513 11.8005L23.0246 13.2376L18.2115 11.5849C15.8585 9.47715 14.7034 8.3993 14.7462 8.3514C14.7889 8.30349 17.6982 5.83643 23.4738 0.950195Z" fill="#8E5A30"/>
</svg>
