<svg width="45" height="45" viewBox="0 0 45 45" fill="none" xmlns="http://www.w3.org/2000/svg">
<path d="M38.7377 7.91241C38.162 7.43541 37.2577 7.36716 36.3228 7.73391H36.3213C35.338 8.11941 8.48724 19.3724 7.39418 19.8322C7.19537 19.8997 5.45905 20.5327 5.6379 21.9427C5.79756 23.214 7.19306 23.7405 7.36347 23.8012L14.1898 26.085C14.6426 27.558 16.3122 32.9925 16.6814 34.1535C16.9117 34.8772 17.287 35.8282 17.9449 36.024C18.5221 36.2415 19.0963 36.0427 19.4678 35.7577L23.6412 31.9755L30.3785 37.1093L30.5389 37.203C30.9964 37.401 31.4347 37.5 31.8531 37.5C32.1762 37.5 32.4863 37.4408 32.7826 37.3223C33.792 36.9172 34.1958 35.9775 34.238 35.871L39.2704 10.3132C39.5774 8.94817 39.1506 8.25366 38.7377 7.91241ZM20.2101 26.9985L17.9073 32.9985L15.6044 25.4985L33.2593 12.7484L20.2101 26.9985Z" fill="#C0C3CF"/>
</svg>
