<svg width="18" height="15" viewBox="0 0 18 14" fill="none"
  xmlns="http://www.w3.org/2000/svg">
  <linearGradient id="twitter-solid-gradient" gradientTransform="rotate(90)">
    <stop class="stop-color-1" stop-color="currentColor" offset="0%"/>
    <stop class="stop-color-2" stop-color="currentColor" offset="100%"/>
  </linearGradient>
  <path d="M0.513239 12.7363C2.41805 12.9076 4.13443 12.428 5.69664 11.2563C4.06248 11.1125 2.96962 10.2971 2.3598 8.76913C2.89425 8.83422 3.39443 8.85135 3.92545 8.70746C2.16453 8.15932 1.22583 7.00821 1.09907 5.15137C1.62666 5.39803 2.12342 5.57618 2.70925 5.58303C1.66434 4.7985 1.1299 3.781 1.15046 2.49971C1.16074 1.91046 1.31833 1.35546 1.63009 0.831294C3.56573 3.09582 5.9947 4.3497 8.98552 4.55868C8.96839 4.4285 8.95811 4.32572 8.9444 4.21952C8.69774 2.32156 9.93107 0.594906 11.8153 0.235185C12.9973 0.00907497 14.0422 0.320833 14.926 1.1362C15.0631 1.25953 15.1796 1.28694 15.3509 1.2424C16.0395 1.06768 16.6938 0.814164 17.3276 0.471573C17.0844 1.27324 16.5842 1.8762 15.9059 2.38323C16.06 2.35582 16.2176 2.33527 16.3718 2.30444C16.5328 2.27018 16.6938 2.23249 16.8548 2.18795C17.009 2.14684 17.1597 2.09888 17.3105 2.04749C17.4646 1.9961 17.6188 1.93786 17.8004 1.90703C17.7113 2.03036 17.6257 2.16055 17.5297 2.28045C17.1323 2.78406 16.6733 3.226 16.1696 3.61998C16.1183 3.6611 16.0737 3.75017 16.0771 3.81184C16.1046 5.02803 15.9333 6.2134 15.5393 7.36451C14.765 9.63246 13.4152 11.4687 11.3905 12.7809C10.3901 13.4284 9.29727 13.8532 8.12904 14.0998C6.97108 14.3431 5.80627 14.3876 4.63804 14.2506C3.46637 14.1135 2.35295 13.7675 1.30462 13.2262C1.02713 13.0858 0.759905 12.9282 0.489258 12.7774C0.499536 12.7637 0.506387 12.75 0.513239 12.7363Z" fill="url(#twitter-solid-gradient)"/>
</svg>
