<svg width="45" height="45" viewBox="0 0 45 45" fill="none" xmlns="http://www.w3.org/2000/svg">
<path d="M42 10.4056C40.5645 11.0431 39.0225 11.4721 37.404 11.6656C39.057 10.6756 40.3245 9.10805 40.9215 7.23905C39.3765 8.15555 37.6635 8.82155 35.8395 9.18155C34.38 7.62605 32.301 6.65405 30 6.65405C25.581 6.65405 21.999 10.2376 21.999 14.6551C21.999 15.2821 22.071 15.8941 22.206 16.4776C15.5565 16.1446 9.66154 12.9586 5.71354 8.11655C5.02654 9.29855 4.63204 10.6726 4.63204 12.1411C4.63204 14.9161 6.04354 17.3656 8.19003 18.7996C6.87903 18.7576 5.64454 18.3976 4.56604 17.7991C4.56604 17.8336 4.56604 17.8651 4.56604 17.8996C4.56604 21.7771 7.32304 25.0111 10.9845 25.7446C10.314 25.9276 9.60603 26.0251 8.87554 26.0251C8.36103 26.0251 7.85854 25.9741 7.37104 25.8826C8.38953 29.0611 11.3445 31.3755 14.8455 31.4401C12.108 33.5865 8.65804 34.8661 4.90804 34.8661C4.26304 34.8661 3.62554 34.8286 2.99854 34.7536C6.54004 37.0231 10.7445 38.3476 15.264 38.3476C29.982 38.3476 38.028 26.1556 38.028 15.5821C38.028 15.2356 38.0205 14.8906 38.0055 14.5471C39.57 13.4176 40.9275 12.0091 42 10.4056Z" fill="#C0C3CF"/>
</svg>
