<svg width="26" height="16" viewBox="0 0 26 16" fill="none" xmlns="http://www.w3.org/2000/svg">
<path d="M5.71094 3.60449C9.73438 -0.325195 16.2656 -0.325195 20.2891 3.60449L20.7734 4.08105C20.9766 4.27637 20.9766 4.59668 20.7734 4.79199L19.1172 6.40918C19.0156 6.51074 18.8516 6.51074 18.75 6.40918L18.0859 5.76074C15.2734 3.01855 10.7266 3.01855 7.91406 5.76074L7.20312 6.45606C7.10156 6.55762 6.9375 6.55762 6.83594 6.45606L5.17969 4.83887C4.97656 4.64355 4.97656 4.32324 5.17969 4.12793L5.71094 3.60449ZM23.7188 6.94824L25.1953 8.38574C25.3984 8.58105 25.3984 8.90137 25.1953 9.09668L18.5469 15.5889C18.3437 15.7842 18.0156 15.7842 17.8203 15.5889L13.1016 10.9795C13.0547 10.9326 12.9687 10.9326 12.9219 10.9795L8.20312 15.5889C8 15.7842 7.67187 15.7842 7.47656 15.5889L0.804687 9.09668C0.601563 8.90137 0.601563 8.58105 0.804687 8.38574L2.28125 6.94824C2.48437 6.75293 2.8125 6.75293 3.00781 6.94824L7.72656 11.5576C7.77344 11.6045 7.85937 11.6045 7.90625 11.5576L12.625 6.94824C12.8281 6.75293 13.1562 6.75293 13.3516 6.94824L18.0703 11.5576C18.1172 11.6045 18.2031 11.6045 18.25 11.5576L22.9687 6.94824C23.1875 6.75293 23.5156 6.75293 23.7188 6.94824Z" fill="white"/>
</svg>
