<?xml version="1.0" standalone="no"?>
<svg version="1.0" xmlns="http://www.w3.org/2000/svg"
 width="595.000000pt" height="579.000000pt" viewBox="0 0 595.000000 579.000000"
 preserveAspectRatio="xMidYMid meet">

<g transform="translate(0.000000,579.000000) scale(0.100000,-0.100000)"
fill="#ffffff" stroke="none">
<path d="M287 5406 c-141 -242 -185 -378 -194 -596 -8 -216 28 -376 133 -585
131 -263 320 -471 701 -771 469 -370 943 -714 1267 -919 531 -337 727 -479
923 -669 150 -145 207 -218 327 -420 51 -86 96 -153 99 -149 24 23 -14 185
-83 359 -130 326 -268 541 -494 767 -219 218 -422 368 -996 732 -698 443
-1004 672 -1250 932 -239 255 -361 490 -406 788 -23 149 -14 351 25 525 16 74
29 136 28 137 -1 1 -37 -58 -80 -131z"/>
<path d="M5500 5475 c0 -6 13 -77 30 -160 57 -293 63 -452 21 -636 -90 -398
-321 -733 -699 -1013 -206 -153 -525 -325 -797 -431 -506 -196 -670 -271 -803
-365 -73 -51 -132 -118 -132 -150 0 -24 58 -100 156 -203 l81 -85 129 33 c575
146 1248 536 1718 995 427 418 558 712 543 1220 -8 255 -50 443 -139 627 -38
79 -108 188 -108 168z"/>
<path d="M4690 2777 c-58 -29 -182 -83 -275 -121 -221 -89 -411 -180 -505
-241 -147 -96 -250 -226 -280 -354 -21 -91 3 -271 36 -271 36 0 105 48 174
123 211 227 202 222 375 222 124 0 133 1 189 30 112 56 234 192 310 342 51
103 115 324 93 322 -7 0 -59 -24 -117 -52z"/>
<path d="M1424 2728 c13 -80 78 -258 125 -338 88 -153 190 -255 315 -314 30
-14 105 -34 172 -46 69 -12 140 -31 169 -45 111 -55 375 -297 561 -515 107
-126 315 -392 371 -475 153 -228 170 -397 48 -503 -29 -26 -44 -32 -84 -32
-26 0 -73 9 -104 19 -199 69 -337 291 -356 571 l-6 95 -24 -85 c-92 -332 -59
-576 98 -730 104 -102 248 -160 396 -160 97 0 177 19 258 62 237 127 340 394
250 650 -39 111 -90 198 -219 367 -167 221 -258 325 -469 536 -509 510 -1000
855 -1363 961 -46 13 -98 24 -114 24 -30 0 -30 0 -24 -42z"/>
</g>
</svg>
